<?xml version="1.0" encoding="UTF-8" standalone="no"?>
<svg
   width="235.64912pt"
   height="173.09343pt"
   viewBox="0 0 235.64912 173.09343"
   version="1.1"
   id="svg45"
   sodipodi:docname="relpos_graph.pdf"
   xmlns:inkscape="http://www.inkscape.org/namespaces/inkscape"
   xmlns:sodipodi="http://sodipodi.sourceforge.net/DTD/sodipodi-0.dtd"
   xmlns="http://www.w3.org/2000/svg"
   xmlns:svg="http://www.w3.org/2000/svg">
  <sodipodi:namedview
     id="namedview45"
     pagecolor="#ffffff"
     bordercolor="#000000"
     borderopacity="0.25"
     inkscape:showpageshadow="2"
     inkscape:pageopacity="0.0"
     inkscape:pagecheckerboard="0"
     inkscape:deskcolor="#d1d1d1"
     inkscape:document-units="pt" />
  <defs
     id="defs2">
    <clipPath
       id="clip-0">
      <path
         clip-rule="nonzero"
         d="m 234,88 h 1.64844 v 3 H 234 Z m 0,0"
         id="path1" />
    </clipPath>
    <clipPath
       id="clip-1">
      <path
         clip-rule="nonzero"
         d="m 108,165 h 8 v 8.09375 h -8 z m 0,0"
         id="path2" />
    </clipPath>
  </defs>
  <path
     fill-rule="nonzero"
     fill="#ffffff"
     fill-opacity="1"
     stroke-width="0.750479"
     stroke-linecap="butt"
     stroke-linejoin="miter"
     stroke="#000000"
     stroke-opacity="1"
     stroke-miterlimit="4"
     d="M 98.953125,69.632812 H 136.48047 V 99.652344 H 98.953125 Z m 0,0"
     id="path3" />
  <path
     fill-rule="nonzero"
     fill="#ffffff"
     fill-opacity="1"
     stroke-width="0.750479"
     stroke-linecap="butt"
     stroke-linejoin="miter"
     stroke="#000000"
     stroke-opacity="1"
     stroke-miterlimit="4"
     d="M 31.410156,69.632812 H 68.9375 V 99.652344 H 31.410156 Z m 0,0"
     id="path4" />
  <path
     fill-rule="nonzero"
     fill="#ffffff"
     fill-opacity="1"
     stroke-width="0.750479"
     stroke-linecap="butt"
     stroke-linejoin="miter"
     stroke="#000000"
     stroke-opacity="1"
     stroke-miterlimit="4"
     d="m 166.49609,69.632812 h 37.52735 v 30.019532 h -37.52735 z m 0,0"
     id="path5" />
  <path
     fill="none"
     stroke-width="0.750479"
     stroke-linecap="butt"
     stroke-linejoin="miter"
     stroke="#000000"
     stroke-opacity="1"
     stroke-miterlimit="10"
     d="m 108.33594,69.757812 c 0,-20.011718 -9.671878,-30.019531 -29.019534,-30.019531 -19.34375,0 -29.015625,8.414063 -29.015625,25.242188"
     id="path6" />
  <path
     fill-rule="nonzero"
     fill="#000000"
     fill-opacity="1"
     stroke-width="0.750479"
     stroke-linecap="butt"
     stroke-linejoin="miter"
     stroke="#000000"
     stroke-opacity="1"
     stroke-miterlimit="10"
     d="m 50.300781,68.917969 -2.628906,-5.253907 2.628906,1.316407 2.625,-1.316407 z m 0,0"
     id="path7" />
  <path
     fill="none"
     stroke-width="0.750479"
     stroke-linecap="butt"
     stroke-linejoin="miter"
     stroke="#000000"
     stroke-opacity="1"
     stroke-miterlimit="10"
     d="m 187.38672,64.980469 c 0,-16.828125 -9.75781,-25.242188 -29.26953,-25.242188 -19.51172,0 -29.26953,10.007813 -29.26953,30.019531"
     id="path8" />
  <path
     fill-rule="nonzero"
     fill="#000000"
     fill-opacity="1"
     stroke-width="0.750479"
     stroke-linecap="butt"
     stroke-linejoin="miter"
     stroke="#000000"
     stroke-opacity="1"
     stroke-miterlimit="10"
     d="m 187.38672,68.917969 -2.62891,-5.253907 2.62891,1.316407 2.625,-1.316407 z m 0,0"
     id="path9" />
  <path
     fill-rule="nonzero"
     fill="#a1a1a1"
     fill-opacity="1"
     d="m 60.179688,99.777344 c 0,0.789066 0.02734,1.554686 0.08203,2.300786 l -0.75,0.0547 c -0.05469,-0.76562 -0.08203,-1.55078 -0.08203,-2.355466 z M 60.503906,104.25 c 0.113282,0.75391 0.261719,1.48047 0.4375,2.18359 l -0.726562,0.1836 c -0.183594,-0.72656 -0.335938,-1.47656 -0.453125,-2.25391 z m 1.085938,4.28906 c 0.257812,0.69922 0.550781,1.3711 0.875,2.01172 l -0.667969,0.33985 c -0.339844,-0.66797 -0.644531,-1.36329 -0.910156,-2.08985 z m 1.996094,3.91016 c 0.414062,0.60156 0.859374,1.17578 1.347656,1.71875 l -0.5625,0.5 C 63.863281,114.09766 63.394531,113.5 62.96875,112.87109 Z M 66.5,115.71875 c 0.542969,0.47266 1.121094,0.91797 1.734375,1.33594 l -0.421875,0.62109 c -0.636719,-0.4375 -1.238281,-0.89844 -1.804688,-1.39062 z m 3.625,2.48047 c 0.636719,0.33984 1.304688,0.66016 2.003906,0.95312 l -0.292968,0.69141 c -0.71875,-0.30469 -1.40625,-0.63281 -2.0625,-0.98437 z m 4.058594,1.72266 c 0.707031,0.23437 1.4375,0.44921 2.199218,0.64062 l -0.183593,0.72656 c -0.777344,-0.19531 -1.527344,-0.41406 -2.253907,-0.65625 z m 4.296875,1.10546 c 0.722656,0.14063 1.464843,0.26172 2.230469,0.3711 l -0.105469,0.74219 c -0.777344,-0.10938 -1.53125,-0.23438 -2.265625,-0.375 z m 4.464843,0.62891 c 0.710938,0.0664 1.433594,0.12109 2.175782,0.16016 l -0.03906,0.75 c -0.753906,-0.043 -1.488281,-0.0937 -2.207031,-0.16407 z m 4.453126,0.24609 c 0.46875,0.008 0.945312,0.0117 1.425781,0.0117 0.3125,0 0.625,0 0.933593,-0.008 l 0.0078,0.75 c -0.3125,0.008 -0.625,0.0117 -0.941406,0.0117 -0.488281,0 -0.96875,-0.0117 -1.441407,-0.0156 z m 4.660156,-0.0469 c 0.75,-0.0273 1.484375,-0.0625 2.203125,-0.11328 l 0.04687,0.75 c -0.722656,0.0469 -1.460938,0.0859 -2.222656,0.11328 z m 4.410156,-0.29688 c 0.78125,-0.082 1.535156,-0.17187 2.273438,-0.27734 l 0.105468,0.74219 c -0.746094,0.10547 -1.511718,0.19922 -2.300781,0.28125 z m 4.41406,-0.63281 c 0.76563,-0.14453 1.50782,-0.30859 2.22266,-0.48437 l 0.17969,0.72656 c -0.72657,0.17969 -1.48047,0.34766 -2.26172,0.49609 z m 4.35547,-1.08984 c 0.72266,-0.23047 1.41406,-0.48438 2.07422,-0.75391 l 0.28516,0.69531 c -0.67969,0.27735 -1.39063,0.53516 -2.13282,0.77344 z m 4.08985,-1.69531 c 0.66406,-0.35157 1.28906,-0.72657 1.875,-1.12891 l 0.42578,0.61719 c -0.60938,0.41797 -1.25782,0.80859 -1.94922,1.17578 z m 3.59765,-2.49219 c 0.54688,-0.5 1.04297,-1.03125 1.49219,-1.58985 l 0.58594,0.46875 c -0.47266,0.58985 -0.9961,1.14844 -1.57422,1.67579 z m 2.71094,-3.40235 c 0.35156,-0.625 0.64844,-1.28515 0.89844,-1.97265 l 0.70703,0.2539 c -0.26563,0.72657 -0.58203,1.42188 -0.94922,2.08594 z m 1.48828,-4.09375 c 0.14063,-0.69531 0.23828,-1.41406 0.29297,-2.16015 l 0.74609,0.0547 c -0.0547,0.77734 -0.15625,1.52734 -0.30078,2.2539 z m 0,0"
     id="path10" />
  <path
     fill-rule="nonzero"
     fill="#a1a1a1"
     fill-opacity="1"
     stroke-width="0.750479"
     stroke-linecap="butt"
     stroke-linejoin="miter"
     stroke="#a1a1a1"
     stroke-opacity="1"
     stroke-miterlimit="10"
     d="m 117.84375,100.61719 2.625,5.2539 -2.625,-1.3164 -2.62891,1.3164 z m 0,0"
     id="path11" />
  <path
     fill-rule="nonzero"
     fill="#a1a1a1"
     fill-opacity="1"
     d="m 40.417969,69.757812 c 0,-0.777343 0.0078,-1.546874 0.02734,-2.308593 l 0.75,0.01953 c -0.01953,0.753906 -0.02734,1.519531 -0.02734,2.289062 z m 0.117187,-4.574218 c 0.03516,-0.746094 0.08594,-1.488282 0.144532,-2.21875 l 0.746093,0.05859 C 41.367188,63.75 41.320312,64.480469 41.28125,65.222656 Z M 40.890625,60.6875 c 0.08203,-0.757812 0.175781,-1.511719 0.28125,-2.253906 l 0.742187,0.101562 c -0.101562,0.738282 -0.195312,1.480469 -0.277343,2.234375 z m 0.628906,-4.460938 c 0.132813,-0.757812 0.273438,-1.503906 0.429688,-2.238281 l 0.734375,0.152344 c -0.152344,0.730469 -0.296875,1.46875 -0.425782,2.214844 z m 0.9375,-4.457031 c 0.179688,-0.730469 0.375,-1.449219 0.578125,-2.160156 l 0.722656,0.207031 c -0.203124,0.703125 -0.394531,1.414063 -0.574218,2.132813 z m 1.257813,-4.339843 c 0.242187,-0.722657 0.496094,-1.4375 0.761718,-2.140626 l 0.703126,0.269532 C 44.914062,46.25 44.664062,46.953125 44.425781,47.664062 Z m 1.605468,-4.21875 c 0.304688,-0.703126 0.621094,-1.394532 0.953126,-2.078126 l 0.675781,0.328126 c -0.328125,0.671874 -0.640625,1.355468 -0.941407,2.046874 z m 1.988282,-4.089844 c 0.363281,-0.664063 0.738281,-1.320313 1.128906,-1.960938 l 0.640625,0.390625 c -0.382813,0.632813 -0.753906,1.273438 -1.109375,1.929688 z m 2.359375,-3.875 c 0.421875,-0.625 0.863281,-1.242188 1.316406,-1.84375 l 0.597656,0.449218 c -0.445312,0.59375 -0.875,1.199219 -1.292969,1.816407 z m 2.71875,-3.625 c 0.480469,-0.578125 0.980469,-1.148438 1.492187,-1.707032 l 0.550782,0.503907 C 53.925781,30.96875 53.4375,31.53125 52.964844,32.101562 Z m 3.066406,-3.347656 c 0.53125,-0.527344 1.078125,-1.042969 1.640625,-1.550782 l 0.5,0.558594 c -0.550781,0.496094 -1.089844,1.003906 -1.613281,1.523438 z m 3.363281,-3.035157 c 0.582032,-0.476562 1.175782,-0.941406 1.785156,-1.398437 l 0.449219,0.601562 c -0.601562,0.449219 -1.183593,0.90625 -1.757812,1.378906 z m 3.617188,-2.710937 c 0.625,-0.425782 1.261718,-0.84375 1.914062,-1.25 l 0.394532,0.636718 c -0.640626,0.402344 -1.269532,0.8125 -1.882813,1.234376 z M 66.28125,20.125 c 0.648438,-0.371094 1.308594,-0.730469 1.980469,-1.082031 l 0.347656,0.664062 c -0.664063,0.347657 -1.316406,0.703125 -1.957031,1.070313 z m 4.03125,-2.105469 c 0.667969,-0.316406 1.347656,-0.628906 2.039062,-0.929687 l 0.296876,0.691406 c -0.679688,0.296875 -1.351563,0.601562 -2.011719,0.914062 z m 4.121094,-1.792969 c 0.703125,-0.28125 1.417968,-0.554687 2.144531,-0.816406 l 0.257813,0.707032 c -0.722657,0.257812 -1.429688,0.527343 -2.125,0.804687 z m 4.257812,-1.546874 c 0.707032,-0.234376 1.421875,-0.457032 2.144532,-0.675782 l 0.214843,0.71875 C 80.335938,14.9375 79.625,15.160156 78.929688,15.390625 Z M 83.039062,13.375 c 0.71875,-0.195312 1.445313,-0.382812 2.183594,-0.566406 l 0.179688,0.730468 c -0.734375,0.179688 -1.453125,0.367188 -2.167969,0.558594 z m 4.355469,-1.074219 c 0.734375,-0.160156 1.476563,-0.316406 2.226563,-0.46875 l 0.144531,0.738281 c -0.742187,0.148438 -1.480469,0.300782 -2.207031,0.464844 z m 4.484375,-0.890625 c 0.71875,-0.128906 1.445313,-0.25 2.179688,-0.367187 l 0.117187,0.742187 c -0.730469,0.117188 -1.453125,0.238282 -2.167969,0.363282 z m 4.40625,-0.695312 c 0.75,-0.101563 1.507813,-0.199219 2.273438,-0.292969 l 0.08984,0.746094 c -0.761719,0.08984 -1.511719,0.1875 -2.257813,0.289062 z m 4.519534,-0.542969 c 0.73047,-0.07813 1.46875,-0.148437 2.21094,-0.210937 l 0.0664,0.746093 c -0.74219,0.06641 -1.47265,0.136719 -2.19922,0.210938 z m 4.46094,-0.390625 c 0.75781,-0.058594 1.52343,-0.105469 2.29296,-0.152344 l 0.043,0.75 c -0.76562,0.04687 -1.52734,0.09375 -2.28125,0.148438 z m 4.53515,-0.265625 c 0.73828,-0.03125 1.47656,-0.058594 2.22266,-0.082031 l 0.0234,0.75 c -0.74219,0.02344 -1.48047,0.05078 -2.21094,0.08203 z m 4.48047,-0.136719 c 0.75781,-0.015625 1.51953,-0.027344 2.28906,-0.03125 l 0.008,0.75 c -0.76954,0.0078 -1.52735,0.01563 -2.28516,0.03125 z m 4.60938,-0.03125 c 0.76953,0.00391 1.53515,0.011719 2.29296,0.023438 l -0.0117,0.75 c -0.75391,-0.01172 -1.51563,-0.01953 -2.28516,-0.02344 z m 4.55468,0.070313 c 0.7461,0.023437 1.48828,0.046875 2.22266,0.078125 l -0.0273,0.746094 c -0.73438,-0.02734 -1.47266,-0.05078 -2.21875,-0.07031 z m 4.45703,0.179687 c 0.77344,0.039063 1.53516,0.082032 2.29688,0.132813 l -0.0508,0.75 c -0.75391,-0.05078 -1.51563,-0.09375 -2.28516,-0.136719 z m 4.55078,0.296875 c 0.7461,0.058594 1.48438,0.121094 2.21485,0.191407 l -0.0664,0.746093 c -0.73047,-0.06641 -1.46484,-0.132812 -2.20703,-0.191406 z m 4.45313,0.417969 c 0.76953,0.08203 1.52734,0.171875 2.28125,0.265625 l -0.0937,0.746094 c -0.75,-0.09375 -1.50391,-0.183594 -2.26563,-0.265625 z m 4.51562,0.566406 c 0.73438,0.105469 1.46485,0.21875 2.1875,0.335938 l -0.12109,0.738281 C 142.77344,11.839844 142.04687,11.726562 141.3125,11.625 Z m 4.44141,0.722656 c 0.75391,0.136719 1.5,0.277344 2.23828,0.425782 l -0.14844,0.738281 c -0.73437,-0.148437 -1.47265,-0.292969 -2.22265,-0.425781 z m 4.42188,0.894532 c 0.73828,0.164062 1.46875,0.335937 2.1875,0.515625 l -0.17969,0.726562 c -0.71485,-0.175781 -1.4375,-0.347656 -2.17188,-0.511719 z m 4.40625,1.09375 c 0.73046,0.203125 1.45312,0.410156 2.16015,0.625 l -0.21484,0.71875 c -0.70313,-0.214844 -1.41797,-0.417969 -2.14453,-0.617188 z m 4.28906,1.296875 c 0.73437,0.246093 1.45703,0.496093 2.17187,0.757812 l -0.25781,0.703125 c -0.70703,-0.257812 -1.42187,-0.507812 -2.15234,-0.746094 z m 4.27734,1.5625 c 0.69922,0.277343 1.38672,0.566406 2.0625,0.859375 l -0.30078,0.6875 c -0.66797,-0.292969 -1.34766,-0.574219 -2.03906,-0.851563 z m 4.15235,1.816406 c 0.68359,0.328125 1.35156,0.667969 2.01171,1.015625 l -0.34765,0.664062 c -0.65235,-0.34375 -1.31641,-0.675781 -1.99219,-1 z m 3.98437,2.101563 c 0.66797,0.382812 1.32031,0.777343 1.95703,1.179687 l -0.39844,0.636719 c -0.63281,-0.398438 -1.27343,-0.789063 -1.93359,-1.167969 z m 3.83203,2.425781 c 0.62891,0.433593 1.23828,0.878906 1.83594,1.335937 l -0.45313,0.597656 c -0.58984,-0.449218 -1.1914,-0.890624 -1.8125,-1.320312 z m 3.60938,2.761719 c 0.57812,0.484374 1.14062,0.980468 1.6875,1.488281 l -0.51172,0.550781 c -0.53906,-0.5 -1.08985,-0.988281 -1.65625,-1.464844 z m 3.32031,3.085937 c 0.52734,0.542969 1.03906,1.097656 1.53516,1.664063 l -0.5625,0.496093 c -0.48829,-0.558593 -0.99219,-1.101562 -1.51172,-1.636719 z m 2.98437,3.40625 c 0.46875,0.597656 0.92188,1.203125 1.35938,1.824219 l -0.61328,0.429687 c -0.42969,-0.605469 -0.875,-1.203125 -1.33203,-1.789062 z m 2.6211,3.710937 c 0.39844,0.636719 0.78515,1.285157 1.15234,1.945313 l -0.65625,0.367187 c -0.35937,-0.648437 -0.73828,-1.285156 -1.13281,-1.910156 z m 2.21094,3.960938 c 0.33203,0.675781 0.64843,1.359375 0.94921,2.054688 l -0.6875,0.300781 c -0.29687,-0.6875 -0.60937,-1.359375 -0.93359,-2.023438 z m 1.79687,4.15625 c 0.26563,0.710938 0.51953,1.429688 0.75391,2.164062 l -0.71485,0.230469 c -0.23047,-0.722656 -0.48047,-1.433593 -0.74218,-2.132812 z m 1.39453,4.308594 c 0.19922,0.722656 0.38281,1.460937 0.55469,2.203125 l -0.73047,0.167969 c -0.16797,-0.734376 -0.35156,-1.457032 -0.54687,-2.171876 z m 1.01953,4.433594 c 0.13672,0.726562 0.25782,1.464843 0.36719,2.210937 l -0.74219,0.109375 c -0.10547,-0.734375 -0.23047,-1.464844 -0.36328,-2.183594 z m 0.66016,4.472656 c 0.082,0.742187 0.15234,1.496094 0.21094,2.253906 l -0.7461,0.05859 c -0.0586,-0.75 -0.1289,-1.496094 -0.21093,-2.226563 z m 0.34766,4.492187 c 0.0352,0.753907 0.0547,1.515625 0.0664,2.285157 l -0.75,0.01172 c -0.0117,-0.761718 -0.0312,-1.519531 -0.0664,-2.265625 z m 0,0"
     id="path12" />
  <path
     fill-rule="nonzero"
     fill="#a1a1a1"
     fill-opacity="1"
     stroke-width="0.750479"
     stroke-linecap="butt"
     stroke-linejoin="miter"
     stroke="#a1a1a1"
     stroke-opacity="1"
     stroke-miterlimit="10"
     d="m 194.89062,68.917969 -2.625,-5.253907 2.625,1.316407 2.62891,-1.316407 z m 0,0"
     id="path13" />
  <path
     fill-rule="nonzero"
     fill="#a1a1a1"
     fill-opacity="1"
     d="m 195.26562,99.777344 c 0,0.777346 -0.008,1.546876 -0.0273,2.308596 l -0.75,-0.0195 c 0.0195,-0.75391 0.0273,-1.51953 0.0273,-2.289066 z m -0.11328,4.574216 c -0.0391,0.7461 -0.0898,1.48438 -0.14843,2.21875 l -0.7461,-0.0586 c 0.0586,-0.72656 0.10547,-1.46094 0.14453,-2.19922 z m -0.35937,4.4961 c -0.082,0.75781 -0.17578,1.51172 -0.28125,2.2539 l -0.74219,-0.10547 c 0.10156,-0.73437 0.19531,-1.47656 0.27734,-2.23046 z m -0.62891,4.46093 c -0.1289,0.75391 -0.27344,1.5 -0.42969,2.23829 L 193,115.39453 c 0.15234,-0.73047 0.29687,-1.46875 0.42578,-2.21484 z m -0.9375,4.45704 c -0.17969,0.72656 -0.375,1.44921 -0.57812,2.16015 l -0.72266,-0.21094 c 0.20313,-0.69921 0.39453,-1.41015 0.57422,-2.13281 z m -1.25781,4.33984 c -0.23828,0.72266 -0.49609,1.4375 -0.76172,2.13672 l -0.70312,-0.26563 c 0.26562,-0.6914 0.51562,-1.39453 0.7539,-2.10547 z m -1.60547,4.21875 c -0.30469,0.70312 -0.62109,1.39453 -0.95312,2.07812 l -0.67579,-0.32812 c 0.32813,-0.67188 0.64063,-1.35547 0.94141,-2.04688 z m -1.98828,4.08984 c -0.36328,0.66406 -0.73828,1.32031 -1.12891,1.96094 l -0.64062,-0.39063 c 0.38281,-0.63281 0.7539,-1.27343 1.10937,-1.92968 z m -2.35938,3.875 c -0.42187,0.625 -0.86328,1.24219 -1.3125,1.84375 l -0.60156,-0.44922 c 0.44531,-0.59375 0.875,-1.19922 1.29297,-1.8164 z m -2.71875,3.6211 c -0.48046,0.58203 -0.98046,1.15234 -1.49218,1.71093 l -0.55078,-0.5039 c 0.5039,-0.55078 0.99218,-1.11328 1.46484,-1.6836 z m -3.0664,3.35156 c -0.53125,0.52734 -1.07813,1.04297 -1.64063,1.55078 l -0.5,-0.55859 c 0.55078,-0.4961 1.08985,-1.00782 1.61328,-1.52344 z m -3.36328,3.03515 c -0.58203,0.47657 -1.17578,0.94141 -1.78516,1.39844 l -0.44922,-0.60156 c 0.60156,-0.44922 1.1875,-0.91016 1.75781,-1.37891 z m -3.61719,2.71094 c -0.625,0.42578 -1.26172,0.84375 -1.91406,1.25 l -0.39453,-0.63672 c 0.64062,-0.40234 1.26953,-0.8125 1.88671,-1.23437 z m -3.84766,2.40235 c -0.64843,0.37109 -1.30859,0.73046 -1.98047,1.08203 l -0.34765,-0.66797 c 0.66406,-0.34375 1.3164,-0.69922 1.95703,-1.06641 z m -4.03125,2.10546 c -0.66797,0.31641 -1.34765,0.625 -2.03906,0.92579 l -0.29687,-0.6875 c 0.67968,-0.29688 1.35156,-0.60157 2.01171,-0.91797 z m -4.12109,1.79297 c -0.70313,0.28125 -1.41797,0.55078 -2.14453,0.81641 l -0.25781,-0.70703 c 0.72265,-0.26172 1.42968,-0.52735 2.125,-0.80469 z m -4.25781,1.54688 c -0.70703,0.23437 -1.42188,0.45703 -2.14453,0.67578 l -0.21485,-0.71875 c 0.71485,-0.21484 1.42578,-0.4375 2.1211,-0.66797 z m -4.34766,1.30469 c -0.71875,0.19531 -1.44531,0.38281 -2.18359,0.5664 l -0.17578,-0.73047 c 0.73046,-0.17968 1.44921,-0.36718 2.16406,-0.55859 z m -4.35547,1.07421 c -0.73437,0.16016 -1.47656,0.31641 -2.22656,0.46485 l -0.14453,-0.73438 c 0.74219,-0.14843 1.48047,-0.30468 2.20703,-0.46484 z m -4.48437,0.89063 c -0.71875,0.12891 -1.44532,0.25 -2.17969,0.36328 L 141.50781,157.75 c 0.73047,-0.11719 1.45313,-0.23828 2.16797,-0.36328 z m -4.40625,0.69531 c -0.75,0.10156 -1.50782,0.19922 -2.27344,0.29297 l -0.0898,-0.74609 c 0.76171,-0.0898 1.51171,-0.1875 2.25781,-0.29297 z m -4.51953,0.54297 c -0.73047,0.0781 -1.46875,0.14844 -2.21094,0.21094 l -0.0664,-0.7461 c 0.73828,-0.0664 1.47266,-0.13671 2.19922,-0.21093 z m -4.46094,0.39063 c -0.75781,0.0547 -1.52344,0.10546 -2.29297,0.14843 l -0.043,-0.74609 c 0.76563,-0.0469 1.52734,-0.0937 2.28125,-0.14844 z m -4.53516,0.26562 c -0.73437,0.0312 -1.47656,0.0586 -2.22265,0.082 l -0.0234,-0.75 c 0.74219,-0.0234 1.48047,-0.0508 2.21094,-0.082 z m -4.48047,0.13672 c -0.7539,0.0156 -1.51953,0.0234 -2.28906,0.0312 l -0.004,-0.75 c 0.76562,-0.0117 1.52734,-0.0156 2.28125,-0.0312 z m -4.60937,0.0312 c -0.76953,-0.008 -1.53516,-0.0117 -2.29297,-0.0234 l 0.0117,-0.75 c 0.75391,0.0117 1.51562,0.0195 2.28516,0.0234 z m -4.55469,-0.0742 c -0.74609,-0.0195 -1.48828,-0.043 -2.22265,-0.0742 l 0.0312,-0.75 c 0.73046,0.0312 1.46875,0.0547 2.21484,0.0742 z m -4.45703,-0.17578 c -0.77344,-0.0391 -1.53906,-0.082 -2.29687,-0.13281 l 0.0508,-0.75 c 0.7539,0.0508 1.51562,0.0937 2.28515,0.13281 z m -4.55078,-0.29688 c -0.74609,-0.0586 -1.48438,-0.12109 -2.21484,-0.1914 l 0.0703,-0.7461 c 0.72656,0.0664 1.46484,0.13282 2.20312,0.19141 z m -4.453126,-0.41796 c -0.769532,-0.0859 -1.527344,-0.17188 -2.28125,-0.26954 l 0.09375,-0.74218 c 0.75,0.0937 1.503906,0.18359 2.269531,0.26562 z m -4.515625,-0.57032 c -0.734375,-0.10547 -1.464844,-0.21484 -2.1875,-0.33203 l 0.121093,-0.74219 c 0.71875,0.11719 1.441407,0.22657 2.175782,0.33204 z m -4.441407,-0.71875 c -0.757812,-0.13672 -1.5,-0.27734 -2.238281,-0.42968 l 0.148438,-0.73438 c 0.730469,0.14844 1.472656,0.28906 2.222656,0.42578 z m -4.421874,-0.89453 c -0.738282,-0.16406 -1.46875,-0.33594 -2.1875,-0.51562 l 0.179687,-0.73047 c 0.714844,0.17969 1.4375,0.35156 2.171875,0.51562 z m -4.40625,-1.09765 c -0.730469,-0.19922 -1.453126,-0.40625 -2.160157,-0.6211 l 0.214844,-0.71875 c 0.703125,0.21485 1.417969,0.41797 2.144531,0.61719 z m -4.289063,-1.29297 c -0.734375,-0.2461 -1.457031,-0.4961 -2.171875,-0.75782 l 0.257812,-0.70312 c 0.707032,0.25781 1.421876,0.50391 2.152344,0.74609 z m -4.277344,-1.5625 c -0.699219,-0.27735 -1.386719,-0.56641 -2.0625,-0.85938 l 0.300781,-0.6875 c 0.667969,0.28906 1.347657,0.57422 2.039063,0.85156 z m -4.152343,-1.82032 c -0.683594,-0.32812 -1.355469,-0.66406 -2.011719,-1.01171 l 0.347656,-0.66407 c 0.652344,0.34375 1.316406,0.67578 1.992187,1 z m -3.984376,-2.09765 c -0.667968,-0.38281 -1.320312,-0.77735 -1.957031,-1.1836 l 0.402344,-0.63281 c 0.628906,0.39844 1.269531,0.78906 1.929687,1.16797 z m -3.832031,-2.42578 c -0.628906,-0.4336 -1.238281,-0.88282 -1.835937,-1.33985 l 0.453125,-0.59375 c 0.589843,0.44922 1.191406,0.89063 1.8125,1.31641 z m -3.609375,-2.76172 c -0.578125,-0.48438 -1.140625,-0.98438 -1.6875,-1.49219 l 0.511719,-0.54687 c 0.539063,0.5 1.089844,0.98828 1.65625,1.46484 z M 53.527344,140.8945 C 53,140.35156 52.488281,139.79687 51.992188,139.23047 l 0.5625,-0.4961 c 0.488281,0.5586 0.992187,1.10157 1.511718,1.63672 z m -2.984375,-3.41016 c -0.46875,-0.59375 -0.921875,-1.19921 -1.359375,-1.82031 l 0.613281,-0.42969 c 0.429687,0.60547 0.875,1.20313 1.335937,1.78907 z m -2.621094,-3.71093 c -0.398437,-0.63672 -0.785156,-1.28516 -1.152344,-1.94532 l 0.65625,-0.36328 c 0.359375,0.64844 0.738281,1.28516 1.132813,1.91016 z m -2.210937,-3.95703 c -0.332032,-0.67579 -0.648438,-1.35938 -0.949219,-2.0586 l 0.6875,-0.29687 c 0.296875,0.6875 0.609375,1.35937 0.933593,2.02343 z m -1.796876,-4.15625 c -0.265624,-0.71094 -0.519531,-1.42969 -0.753906,-2.16407 L 43.875,123.26563 c 0.230469,0.72265 0.480469,1.43359 0.742188,2.13281 z m -1.394531,-4.3086 c -0.199219,-0.72656 -0.382812,-1.46093 -0.554687,-2.20312 l 0.730468,-0.16797 c 0.167969,0.73437 0.351563,1.45703 0.546876,2.17187 z M 41.5,116.91797 c -0.136719,-0.73047 -0.257812,-1.46484 -0.367188,-2.21094 L 41.875,114.59766 c 0.109375,0.73437 0.230469,1.46484 0.363281,2.17968 z m -0.660156,-4.47656 c -0.08203,-0.74219 -0.152344,-1.49219 -0.210938,-2.25 l 0.746094,-0.0586 c 0.05859,0.75 0.128906,1.49219 0.210938,2.22657 z m -0.347656,-4.48828 c -0.03516,-0.75391 -0.05469,-1.51563 -0.06641,-2.28516 l 0.75,-0.0117 c 0.01172,0.76172 0.03125,1.51563 0.06641,2.26172 z m 0,0"
     id="path14" />
  <path
     fill-rule="nonzero"
     fill="#a1a1a1"
     fill-opacity="1"
     stroke-width="0.750479"
     stroke-linecap="butt"
     stroke-linejoin="miter"
     stroke="#a1a1a1"
     stroke-opacity="1"
     stroke-miterlimit="10"
     d="m 40.792969,100.61719 2.625,5.2539 -2.625,-1.3164 -2.625,1.3164 z m 0,0"
     id="path15" />
  <path
     fill-rule="nonzero"
     fill="#a1a1a1"
     fill-opacity="1"
     d="m 125.72266,104.55469 c 0,0.78125 0.043,1.53515 0.1289,2.26172 l -0.74609,0.0898 c -0.0898,-0.75781 -0.13281,-1.53906 -0.13281,-2.35156 z m 0.51953,4.38672 c 0.1875,0.72656 0.42187,1.42578 0.71094,2.08984 l -0.6875,0.29688 c -0.30469,-0.70313 -0.55469,-1.4336 -0.75,-2.20313 z m 1.72656,4.0039 c 0.39453,0.61328 0.83984,1.19141 1.33594,1.74219 l -0.55469,0.5 c -0.52734,-0.57812 -0.99609,-1.19141 -1.41016,-1.83594 z m 2.90625,3.23047 c 0.5625,0.46094 1.17187,0.89844 1.82812,1.30078 l -0.39453,0.64063 c -0.6875,-0.42578 -1.32031,-0.87891 -1.91015,-1.35938 z m 3.71094,2.33203 c 0.66406,0.32032 1.36328,0.61719 2.10156,0.89063 l -0.26172,0.70312 c -0.75781,-0.28125 -1.48047,-0.58593 -2.16406,-0.91797 z m 4.14062,1.56641 c 0.70313,0.20703 1.4375,0.39453 2.19922,0.56641 l -0.16406,0.73046 c -0.77735,-0.17578 -1.52735,-0.36718 -2.2461,-0.57812 z m 4.36328,0.99219 c 0.70703,0.12109 1.4375,0.23047 2.19141,0.32812 l -0.0977,0.74219 c -0.76172,-0.0977 -1.5039,-0.20703 -2.22265,-0.32813 z m 4.51172,0.57422 c 0.69531,0.0625 1.40625,0.10937 2.13672,0.15234 l -0.043,0.75 c -0.73437,-0.043 -1.45703,-0.0937 -2.16015,-0.15625 z m 4.375,0.24218 c 0.76172,0.0234 1.54297,0.0312 2.33594,0.0312 v 0.75391 c -0.80078,-0.008 -1.58594,-0.0117 -2.35547,-0.0352 z m 4.67578,-0.004 c 0.76172,-0.0234 1.50782,-0.0625 2.23828,-0.11328 l 0.0508,0.75 c -0.73829,0.0508 -1.49219,0.0859 -2.26563,0.11328 z m 4.375,-0.30078 c 0.78907,-0.0859 1.55469,-0.1875 2.29688,-0.3086 l 0.11719,0.74219 c -0.75391,0.12109 -1.53125,0.22266 -2.33204,0.3125 z m 4.47657,-0.71094 c 0.73437,-0.16016 1.4414,-0.33203 2.1289,-0.52735 l 0.20313,0.72266 c -0.69922,0.19922 -1.42578,0.375 -2.17188,0.53516 z m 4.28906,-1.21875 c 0.6914,-0.25 1.35547,-0.52344 1.99219,-0.81641 l 0.3125,0.6836 c -0.65625,0.30078 -1.33985,0.58203 -2.05079,0.83984 z m 4,-1.85938 c 0.63672,-0.375 1.24219,-0.77343 1.8125,-1.20312 l 0.44922,0.60547 c -0.59375,0.4414 -1.21875,0.85547 -1.88282,1.24609 z m 3.50781,-2.6289 c 0.53125,-0.50782 1.02734,-1.04688 1.48438,-1.61328 l 0.58203,0.47265 c -0.47657,0.58985 -0.99219,1.15235 -1.54688,1.6836 z m 2.74609,-3.39844 c 0.38282,-0.625 0.72657,-1.28125 1.03907,-1.96484 l 0.68359,0.3125 c -0.32422,0.71093 -0.68359,1.39062 -1.08203,2.04296 z m 1.81641,-3.98828 c 0.22656,-0.69531 0.41797,-1.41797 0.57422,-2.16797 l 0.73437,0.15625 c -0.16406,0.77344 -0.36328,1.51953 -0.59375,2.24219 z m 0.92969,-4.31641 c 0.0898,-0.71875 0.14844,-1.46094 0.18359,-2.22265 l 0.75,0.0352 c -0.0352,0.77735 -0.0977,1.53906 -0.1875,2.27735 z m 0,0"
     id="path16" />
  <path
     fill-rule="nonzero"
     fill="#a1a1a1"
     fill-opacity="1"
     stroke-width="0.750479"
     stroke-linecap="butt"
     stroke-linejoin="miter"
     stroke="#a1a1a1"
     stroke-opacity="1"
     stroke-miterlimit="10"
     d="m 125.34766,100.61719 2.625,5.2539 -2.625,-1.3164 -2.62891,1.3164 z m 0,0"
     id="path17" />
  <path
     fill-rule="nonzero"
     fill="#000000"
     fill-opacity="1"
     d="m 118.78516,80.628906 c 0.0273,0.292969 0.24609,0.472656 0.52343,0.472656 0.4375,0 0.76563,-0.363281 0.76563,-0.800781 -0.0234,-0.265625 -0.23047,-0.460937 -0.50781,-0.460937 -0.42578,0 -0.78125,0.363281 -0.78125,0.789062 z m -0.10938,2.675782 c 0.0117,0.04687 0.0117,0.08594 0.0117,0.132812 0,0.363281 -1.30078,5.324219 -1.30078,5.335938 -0.19141,0.511718 -0.67969,1.144531 -1.27344,1.144531 -0.0625,0 -0.10937,0 -0.17187,-0.01172 0.20703,-0.121094 0.39062,-0.339844 0.39062,-0.667969 0,-0.316406 -0.20703,-0.5 -0.51172,-0.5 -0.39062,0 -0.78906,0.339844 -0.78906,0.800781 0,0.5625 0.46094,0.816407 1.05469,0.816407 0.25781,0 0.34375,-0.01172 0.59765,-0.07422 0.76563,-0.207031 1.44532,-0.800781 1.70313,-1.496094 0.0234,-0.07031 0.30078,-1.152344 0.65625,-2.527344 l 0.59375,-2.417968 v -0.195313 c 0,-0.585937 -0.25391,-0.804687 -0.61719,-1.023437 -0.17187,-0.07031 -0.3164,-0.109375 -0.53515,-0.121094 -0.0977,0 -0.20704,0.01172 -0.2461,0.01172 -0.27734,0.03906 -0.58203,0.183593 -0.83594,0.390625 -0.36718,0.292968 -0.71875,0.789062 -0.94921,1.335937 -0.0742,0.171875 -0.0508,0.183594 0.0234,0.257813 h 0.17188 c 0.2539,0 0.1914,0 0.27734,-0.171875 0.28125,-0.679688 0.71875,-1.179688 1.15625,-1.324219 0.10938,-0.03516 0.19531,-0.05078 0.27735,-0.05078 0.20703,0 0.3164,0.148437 0.3164,0.355469 z m 0,0"
     id="path18" />
  <path
     fill-rule="nonzero"
     fill="#000000"
     fill-opacity="1"
     d="m 40.394531,80.628906 c 0.02734,0.292969 0.246094,0.472656 0.523438,0.472656 0.4375,0 0.765625,-0.363281 0.765625,-0.800781 -0.02344,-0.265625 -0.230469,-0.460937 -0.507813,-0.460937 -0.425781,0 -0.78125,0.363281 -0.78125,0.789062 z m -0.109375,2.675782 c 0.01172,0.04687 0.01172,0.08594 0.01172,0.132812 0,0.363281 -1.300781,5.324219 -1.300781,5.335938 -0.191406,0.511718 -0.679688,1.144531 -1.273438,1.144531 -0.0625,0 -0.109375,0 -0.171875,-0.01172 0.207031,-0.121094 0.390625,-0.339844 0.390625,-0.667969 0,-0.316406 -0.207031,-0.5 -0.511718,-0.5 -0.390626,0 -0.789063,0.339844 -0.789063,0.800781 0,0.5625 0.460937,0.816407 1.054687,0.816407 0.257813,0 0.34375,-0.01172 0.597657,-0.07422 0.765625,-0.207031 1.445312,-0.800781 1.703125,-1.496094 0.02344,-0.07031 0.300781,-1.152344 0.65625,-2.527344 l 0.59375,-2.417968 v -0.195313 c 0,-0.585937 -0.253906,-0.804687 -0.617188,-1.023437 C 40.457031,82.550781 40.3125,82.511719 40.09375,82.5 c -0.09766,0 -0.207031,0.01172 -0.246094,0.01172 -0.277344,0.03906 -0.582031,0.183593 -0.835937,0.390625 -0.367188,0.292968 -0.71875,0.789062 -0.949219,1.335937 -0.07422,0.171875 -0.05078,0.183594 0.02344,0.257813 h 0.171874 c 0.253907,0 0.191407,0 0.277344,-0.171875 0.28125,-0.679688 0.71875,-1.179688 1.15625,-1.324219 0.109375,-0.03516 0.195313,-0.05078 0.277344,-0.05078 0.207031,0 0.316406,0.148437 0.316406,0.355469 z m 0,0"
     id="path19" />
  <path
     fill-rule="nonzero"
     fill="#000000"
     fill-opacity="1"
     d="m 46.0625,84.835938 c 0,0.132812 0.07422,0.195312 0.171875,0.242187 h 7.0625 c 0.09766,-0.04687 0.183594,-0.109375 0.183594,-0.242187 0,-0.132813 -0.08594,-0.195313 -0.183594,-0.242188 h -7.0625 c -0.09766,0.04687 -0.171875,0.109375 -0.171875,0.242188 z m 0,0"
     id="path20" />
  <path
     fill-rule="nonzero"
     fill="#000000"
     fill-opacity="1"
     d="m 62.859375,87.875 h 0.132813 v -0.558594 h -0.71875 c -0.363282,0 -0.617188,-0.01172 -0.789063,-0.183594 l -0.01172,-3.648437 v -3.632813 c -0.07422,-0.0625 -0.05078,-0.07422 -0.207031,-0.07422 -0.109375,0 -0.121094,0 -0.144531,0.03516 -0.0625,0.0625 -0.269532,0.222656 -0.378906,0.28125 -0.449219,0.28125 -1.019532,0.4375 -1.703126,0.460938 h -0.230468 v 0.5625 h 0.230468 c 0.464844,-0.01563 0.902344,-0.09766 1.253907,-0.234376 0.04687,-0.02344 0.08594,-0.03516 0.09766,-0.03516 v 6.285156 c -0.08594,0.0625 -0.144531,0.132813 -0.292969,0.144532 -0.132812,0.02734 -0.558594,0.03906 -0.910156,0.03906 H 58.871094 V 87.875 h 0.144531 c 0.207031,-0.03516 1.519531,-0.03516 1.910156,-0.03516 0.386719,0 1.726563,0 1.933594,0.03516 z m 0,0"
     id="path21" />
  <path
     fill-rule="nonzero"
     fill="#000000"
     fill-opacity="1"
     d="m 175.48047,80.628906 c 0.0273,0.292969 0.24609,0.472656 0.52344,0.472656 0.4375,0 0.76562,-0.363281 0.76562,-0.800781 -0.0234,-0.265625 -0.23047,-0.460937 -0.50781,-0.460937 -0.42578,0 -0.78125,0.363281 -0.78125,0.789062 z m -0.10938,2.675782 c 0.0117,0.04687 0.0117,0.08594 0.0117,0.132812 0,0.363281 -1.30078,5.324219 -1.30078,5.335938 -0.19141,0.511718 -0.67969,1.144531 -1.27344,1.144531 -0.0625,0 -0.10937,0 -0.17187,-0.01172 0.20703,-0.121094 0.39062,-0.339844 0.39062,-0.667969 0,-0.316406 -0.20703,-0.5 -0.51172,-0.5 -0.39062,0 -0.78906,0.339844 -0.78906,0.800781 0,0.5625 0.46094,0.816407 1.05469,0.816407 0.25781,0 0.34375,-0.01172 0.59766,-0.07422 0.76562,-0.207031 1.44531,-0.800781 1.70312,-1.496094 0.0234,-0.07031 0.30078,-1.152344 0.65625,-2.527344 l 0.59375,-2.417968 v -0.195313 c 0,-0.585937 -0.25391,-0.804687 -0.61719,-1.023437 -0.17187,-0.07031 -0.3164,-0.109375 -0.53515,-0.121094 -0.0977,0 -0.20703,0.01172 -0.2461,0.01172 -0.27734,0.03906 -0.58203,0.183593 -0.83593,0.390625 -0.36719,0.292968 -0.71875,0.789062 -0.94922,1.335937 -0.0742,0.171875 -0.0508,0.183594 0.0234,0.257813 h 0.17188 c 0.25391,0 0.19141,0 0.27734,-0.171875 0.28125,-0.679688 0.71875,-1.179688 1.15625,-1.324219 0.10938,-0.03516 0.19532,-0.05078 0.27735,-0.05078 0.20703,0 0.3164,0.148437 0.3164,0.355469 z m 0,0"
     id="path22" />
  <path
     fill-rule="nonzero"
     fill="#000000"
     fill-opacity="1"
     d="m 180.80859,84.835938 c 0,0.132812 0.0742,0.195312 0.17188,0.242187 h 3.63281 v 3.625 c 0.0508,0.09766 0.10938,0.167969 0.24609,0.167969 0.13282,0 0.19532,-0.07031 0.24219,-0.167969 v -3.625 h 3.6211 c 0.0977,-0.04687 0.18359,-0.109375 0.18359,-0.242187 0,-0.132813 -0.0859,-0.195313 -0.18359,-0.242188 h -3.6211 v -3.625 c -0.0469,-0.09766 -0.12109,-0.183594 -0.24219,-0.183594 -0.12109,0 -0.18359,0.09766 -0.23046,0.160156 l -0.0156,1.824219 v 1.824219 h -3.63281 c -0.0977,0.04687 -0.17188,0.109375 -0.17188,0.242188 z m 0,0"
     id="path23" />
  <path
     fill-rule="nonzero"
     fill="#000000"
     fill-opacity="1"
     d="m 197.94531,87.875 h 0.13281 v -0.558594 h -0.71875 c -0.36328,0 -0.61718,-0.01172 -0.78906,-0.183594 l -0.0117,-3.648437 v -3.632813 c -0.0742,-0.0625 -0.0508,-0.07422 -0.20703,-0.07422 -0.10937,0 -0.12109,0 -0.14453,0.03516 -0.0625,0.0625 -0.26953,0.222656 -0.37891,0.28125 -0.44921,0.28125 -1.01953,0.4375 -1.70312,0.460938 h -0.23047 v 0.5625 h 0.23047 c 0.46484,-0.01563 0.90234,-0.09766 1.25391,-0.234376 0.0469,-0.02344 0.0859,-0.03516 0.0977,-0.03516 v 6.285156 c -0.0859,0.0625 -0.14453,0.132813 -0.29297,0.144532 -0.13281,0.02734 -0.55859,0.03906 -0.91015,0.03906 H 193.9571 V 87.875 h 0.14453 c 0.20703,-0.03516 1.51953,-0.03516 1.91016,-0.03516 0.38672,0 1.72656,0 1.93359,0.03516 z m 0,0"
     id="path24" />
  <path
     fill-rule="nonzero"
     fill="#000000"
     fill-opacity="1"
     d="m 0,88.644531 h 1.5 v 1.5 H 0 Z m 0,0"
     id="path25" />
  <path
     fill-rule="nonzero"
     fill="#000000"
     fill-opacity="1"
     d="m 4.503906,88.644531 h 1.5 v 1.5 h -1.5 z m 0,0"
     id="path26" />
  <path
     fill-rule="nonzero"
     fill="#000000"
     fill-opacity="1"
     d="m 9.003906,88.644531 h 1.5 v 1.5 h -1.5 z m 0,0"
     id="path27" />
  <path
     fill-rule="nonzero"
     fill="#000000"
     fill-opacity="1"
     d="m 225.14453,88.644531 h 1.5 v 1.5 h -1.5 z m 0,0"
     id="path28" />
  <path
     fill-rule="nonzero"
     fill="#000000"
     fill-opacity="1"
     d="m 229.64453,88.644531 h 1.5 v 1.5 h -1.5 z m 0,0"
     id="path29" />
  <g
     clip-path="url(#clip-0)"
     id="g30">
    <path
       fill-rule="nonzero"
       fill="#000000"
       fill-opacity="1"
       d="m 234.14844,88.644531 h 1.5 v 1.5 h -1.5 z m 0,0"
       id="path30" />
  </g>
  <path
     fill-rule="nonzero"
     fill="#000000"
     fill-opacity="1"
     d="m 71.488281,34.167969 c 0,0.121093 0,0.253906 -0.01172,0.375 l -0.01172,0.21875 -0.07422,0.230469 c -0.277344,0.902343 -0.582031,2.054687 -0.644531,2.480468 -0.01172,0.07422 -0.01172,0.136719 -0.01172,0.195313 0,0.207031 0.05078,0.339843 0.207031,0.339843 0.03516,0 0.07422,-0.01172 0.109375,-0.03516 0.183594,-0.08594 0.316407,-0.425781 0.546875,-1.375 0.160156,-0.617187 0.253906,-1.167968 0.316406,-1.714844 0.01172,-0.09766 0.02344,-0.167968 0.09766,-0.363281 0.425781,-1.226562 0.960937,-2.480469 1.628906,-3.792969 0.132813,-0.28125 0.21875,-0.449218 0.21875,-0.472656 0,-0.03906 -0.04687,-0.08594 -0.07422,-0.109375 h -0.15625 c -0.109375,0 -0.171875,0 -0.195312,0.01172 -0.02344,0.02344 -0.07422,0.121094 -0.265625,0.484375 -0.4375,0.875 -0.730469,1.519531 -1.070313,2.394531 l -0.148437,0.328125 c -0.01172,0 -0.01172,-0.02344 -0.01172,-0.04687 0,-0.195312 -0.08594,-0.667968 -0.167969,-1.035156 -0.367187,-1.433594 -0.828125,-2.066406 -1.605469,-2.246094 -0.07422,-0.01563 -0.257812,-0.01563 -0.402343,-0.01563 h -0.144531 c -0.9375,0.136719 -1.8125,0.9375 -2.164063,1.984375 -0.03906,0.121094 -0.0625,0.195313 -0.0625,0.242188 0,0.109375 0.109375,0.109375 0.242187,0.109375 0.08594,0 0.171876,0 0.195313,-0.02344 0.01172,0 0.03906,-0.05078 0.05078,-0.109375 0.253906,-0.695312 0.984375,-1.15625 1.761719,-1.15625 1.519531,0 1.847656,1.542969 1.847656,3.101563 z m 0,0"
     id="path31" />
  <path
     fill-rule="nonzero"
     fill="#000000"
     fill-opacity="1"
     d="m 74.019531,34.734375 c 0,0.09375 0.05078,0.136719 0.121094,0.171875 h 4.992187 c 0.06641,-0.03516 0.128907,-0.07813 0.128907,-0.171875 0,-0.09375 -0.0625,-0.136719 -0.128907,-0.171875 h -4.992187 c -0.07031,0.03516 -0.121094,0.07813 -0.121094,0.171875 z m 0,0"
     id="path32" />
  <path
     fill-rule="nonzero"
     fill="#000000"
     fill-opacity="1"
     d="m 83.625,36.882812 h 0.09375 v -0.394531 h -0.503906 c -0.257813,0 -0.441406,-0.0078 -0.558594,-0.128906 L 82.64453,33.78125 v -2.570312 c -0.05078,-0.04297 -0.03125,-0.05078 -0.144531,-0.05078 -0.07813,0 -0.08594,0 -0.101562,0.02734 -0.04297,0.04297 -0.191407,0.152344 -0.269532,0.195312 -0.316406,0.199219 -0.71875,0.308594 -1.203125,0.328126 h -0.160156 v 0.394531 h 0.160156 c 0.328125,-0.0078 0.636719,-0.07031 0.886719,-0.164063 0.03516,-0.01563 0.05859,-0.02344 0.07031,-0.02344 v 4.441406 c -0.0625,0.04297 -0.105468,0.09375 -0.207031,0.101563 -0.09375,0.01953 -0.394531,0.02734 -0.644531,0.02734 h -0.222656 v 0.394531 h 0.101562 c 0.144532,-0.02734 1.074219,-0.02734 1.347656,-0.02734 0.277344,0 1.222657,0 1.367188,0.02734 z m 0,0"
     id="path33" />
  <path
     fill-rule="nonzero"
     fill="#000000"
     fill-opacity="1"
     d="m 157.37109,34.167969 c 0,0.121093 0,0.253906 -0.0117,0.375 l -0.0117,0.21875 -0.0742,0.230469 c -0.27735,0.902343 -0.58203,2.054687 -0.64453,2.480468 -0.0117,0.07422 -0.0117,0.136719 -0.0117,0.195313 0,0.207031 0.0508,0.339843 0.20703,0.339843 0.0352,0 0.0742,-0.01172 0.10937,-0.03516 0.1836,-0.08594 0.31641,-0.425781 0.54688,-1.375 0.16015,-0.617187 0.2539,-1.167968 0.3164,-1.714844 0.0117,-0.09766 0.0234,-0.167968 0.0977,-0.363281 0.42578,-1.226562 0.96094,-2.480469 1.62891,-3.792969 0.13281,-0.28125 0.21875,-0.449218 0.21875,-0.472656 0,-0.03906 -0.0469,-0.08594 -0.0742,-0.109375 h -0.15625 c -0.10938,0 -0.17188,0 -0.19531,0.01172 -0.0234,0.02344 -0.0742,0.121094 -0.26563,0.484375 -0.4375,0.875 -0.73047,1.519531 -1.07031,2.394531 l -0.14844,0.328125 c -0.0117,0 -0.0117,-0.02344 -0.0117,-0.04687 0,-0.195312 -0.0859,-0.667968 -0.16797,-1.035156 -0.36718,-1.433594 -0.82812,-2.066406 -1.60547,-2.246094 -0.0742,-0.01563 -0.25781,-0.01563 -0.40234,-0.01563 H 155.5 c -0.9375,0.136719 -1.8125,0.9375 -2.16406,1.984375 -0.0391,0.121094 -0.0625,0.195313 -0.0625,0.242188 0,0.109375 0.10937,0.109375 0.24218,0.109375 0.0859,0 0.17188,0 0.19532,-0.02344 0.0117,0 0.0391,-0.05078 0.0508,-0.109375 0.2539,-0.695312 0.98437,-1.15625 1.76172,-1.15625 1.51953,0 1.84765,1.542969 1.84765,3.101563 z m 0,0"
     id="path34" />
  <path
     fill-rule="nonzero"
     fill="#000000"
     fill-opacity="1"
     d="m 162.75391,36.882812 h 0.0937 v -0.394531 h -0.50391 c -0.25781,0 -0.44141,-0.0078 -0.55859,-0.128906 l -0.0117,-2.578125 v -2.570312 c -0.0508,-0.04297 -0.0312,-0.05078 -0.14453,-0.05078 -0.0781,0 -0.0859,0 -0.10157,0.02734 -0.043,0.04297 -0.1914,0.152344 -0.26953,0.195312 -0.3164,0.199219 -0.71875,0.308594 -1.20312,0.328126 h -0.16016 v 0.394531 h 0.16016 c 0.32812,-0.0078 0.63672,-0.07031 0.88672,-0.164063 0.0352,-0.01563 0.0586,-0.02344 0.0703,-0.02344 v 4.441406 c -0.0625,0.04297 -0.10547,0.09375 -0.20703,0.101563 -0.0937,0.01953 -0.39453,0.02734 -0.64453,0.02734 h -0.22266 v 0.394531 h 0.10156 c 0.14453,-0.02734 1.07422,-0.02734 1.34766,-0.02734 0.27734,0 1.22265,0 1.36719,0.02734 z m 0,0"
     id="path35" />
  <g
     clip-path="url(#clip-1)"
     id="g36">
    <path
       fill-rule="nonzero"
       fill="#7f7f7f"
       fill-opacity="1"
       d="m 113.01563,169.25391 c 0,0.12109 0,0.2539 -0.0117,0.375 l -0.0117,0.21875 -0.0742,0.23046 c -0.27734,0.90235 -0.58203,2.05469 -0.64453,2.48047 -0.0117,0.0742 -0.0117,0.13672 -0.0117,0.19532 0,0.20703 0.0508,0.33984 0.20703,0.33984 0.0352,0 0.0742,-0.0117 0.10938,-0.0352 0.18359,-0.0859 0.3164,-0.42578 0.54687,-1.375 0.16016,-0.61718 0.25391,-1.16797 0.31641,-1.71484 0.0117,-0.0977 0.0234,-0.16797 0.0977,-0.36328 0.42578,-1.22656 0.96094,-2.48047 1.62891,-3.79297 0.13281,-0.28125 0.21875,-0.44922 0.21875,-0.47266 0,-0.0391 -0.0469,-0.0859 -0.0742,-0.10937 h -0.15625 c -0.10937,0 -0.17187,0 -0.19531,0.0117 -0.0234,0.0234 -0.0742,0.12109 -0.26563,0.48437 -0.4375,0.875 -0.73047,1.51953 -1.07031,2.39453 l -0.14844,0.32813 c -0.0117,0 -0.0117,-0.0234 -0.0117,-0.0469 0,-0.19531 -0.0859,-0.66797 -0.16796,-1.03515 -0.36719,-1.4336 -0.82813,-2.06641 -1.60547,-2.2461 -0.0742,-0.0156 -0.25782,-0.0156 -0.40235,-0.0156 h -0.14453 c -0.9375,0.13672 -1.8125,0.9375 -2.16406,1.98437 -0.0391,0.1211 -0.0625,0.19532 -0.0625,0.24219 0,0.10938 0.10937,0.10938 0.24219,0.10938 0.0859,0 0.17187,0 0.19531,-0.0234 0.0117,0 0.0391,-0.0508 0.0508,-0.10938 0.25391,-0.69531 0.98438,-1.15625 1.76172,-1.15625 1.51953,0 1.84766,1.54297 1.84766,3.10157 z m 0,0"
       id="path36" />
  </g>
  <path
     fill-rule="nonzero"
     fill="#7f7f7f"
     fill-opacity="1"
     d="m 115.54688,169.82031 c 0,0.0937 0.0508,0.13672 0.12109,0.17188 h 4.99219 c 0.0664,-0.0352 0.1289,-0.0781 0.1289,-0.17188 0,-0.0937 -0.0625,-0.13672 -0.1289,-0.17187 h -4.99219 c -0.0703,0.0352 -0.12109,0.0781 -0.12109,0.17187 z m 0,0"
     id="path37" />
  <path
     fill-rule="nonzero"
     fill="#7f7f7f"
     fill-opacity="1"
     d="m 122.52344,168.28125 c 0.3164,0 0.51562,-0.23828 0.51562,-0.51563 0,-0.26562 -0.17968,-0.51562 -0.48047,-0.51562 -0.0273,0 -0.043,0 -0.043,-0.008 0,-0.008 0.043,-0.0781 0.0781,-0.14453 0.1875,-0.27735 0.41797,-0.44922 0.80469,-0.44922 0.74219,0 1.1289,0.61328 1.1289,1.33203 0,0.5 -0.1914,0.91015 -0.57812,1.4375 -0.1875,0.23828 -0.23047,0.30078 -1.20313,1.375 -0.38671,0.4375 -0.71093,0.80469 -0.72265,0.8164 -0.0156,0.0234 -0.0156,0.0508 -0.0156,0.19532 v 0.16406 h 3.1875 v -0.0273 c 0.0273,-0.0508 0.21485,-1.51954 0.24219,-1.57032 v -0.0273 h -0.34375 v 0.0273 c -0.0703,0.38672 -0.0781,0.46485 -0.12109,0.58203 -0.0273,0.0859 -0.0586,0.17188 -0.0859,0.1836 -0.0508,0.0234 -0.56641,0.043 -1.43359,0.043 l -0.65625,-0.0117 0.50781,-0.48047 c 0.58594,-0.55859 0.55859,-0.53125 0.85937,-0.78906 0.56641,-0.49219 0.79297,-0.72266 0.97266,-0.98828 0.20703,-0.30079 0.30078,-0.5586 0.30078,-0.9375 0,-0.10157 -0.008,-0.20704 -0.0195,-0.28516 -0.14453,-0.83984 -0.81641,-1.44141 -1.82031,-1.44141 -0.875,0 -1.58985,0.6875 -1.58985,1.50391 0,0.29297 0.1875,0.53125 0.51563,0.53125 z m 0,0"
     id="path38" />
  <path
     fill-rule="nonzero"
     fill="#7f7f7f"
     fill-opacity="1"
     d="m 123.85156,4.148438 c 0,0.121093 0,0.253906 -0.0117,0.375 l -0.0117,0.21875 -0.0742,0.230468 c -0.27735,0.902344 -0.58203,2.054688 -0.64453,2.480469 -0.0117,0.074219 -0.0117,0.136719 -0.0117,0.195313 0,0.207031 0.0508,0.339843 0.20703,0.339843 0.0352,0 0.0742,-0.011719 0.10937,-0.035156 0.1836,-0.085937 0.31641,-0.425781 0.54688,-1.375 0.16015,-0.617187 0.2539,-1.167969 0.3164,-1.714844 0.0117,-0.097656 0.0234,-0.167969 0.0977,-0.363281 0.42578,-1.226562 0.96094,-2.480469 1.62891,-3.792969 0.13281,-0.28125 0.21875,-0.449219 0.21875,-0.472656 0,-0.039063 -0.0469,-0.085937 -0.0742,-0.109375 h -0.15625 c -0.10938,0 -0.17188,0 -0.19531,0.011719 -0.0234,0.023437 -0.0742,0.121093 -0.26563,0.484375 -0.4375,0.875 -0.73047,1.519531 -1.07031,2.394531 L 124.3125,3.34375 c -0.0117,0 -0.0117,-0.023438 -0.0117,-0.046875 0,-0.195313 -0.0859,-0.667969 -0.16797,-1.035156 -0.3672,-1.433594 -0.82814,-2.066407 -1.60549,-2.246094 C 122.45313,0 122.26953,0 122.125,0 h -0.14453 c -0.9375,0.136719 -1.8125,0.9375 -2.16406,1.984375 -0.0391,0.121094 -0.0625,0.195313 -0.0625,0.242187 0,0.109376 0.10937,0.109376 0.24218,0.109376 0.0859,0 0.17188,0 0.19532,-0.023438 0.0117,0 0.0391,-0.050781 0.0508,-0.109375 0.2539,-0.695313 0.98437,-1.15625 1.76172,-1.15625 1.51953,0 1.84765,1.542969 1.84765,3.101563 z m 0,0"
     id="path39" />
  <path
     fill-rule="nonzero"
     fill="#7f7f7f"
     fill-opacity="1"
     d="m 126.60547,3.175781 c 0.31641,0 0.51562,-0.238281 0.51562,-0.515625 0,-0.265625 -0.17968,-0.515625 -0.48046,-0.515625 -0.0273,0 -0.043,0 -0.043,-0.00781 0,-0.00781 0.043,-0.078125 0.0781,-0.144531 0.1875,-0.277344 0.41797,-0.449219 0.80469,-0.449219 0.74219,0 1.1289,0.613281 1.1289,1.332031 0,0.5 -0.1914,0.910156 -0.57812,1.4375 -0.1875,0.238281 -0.23047,0.300781 -1.20312,1.375 -0.38672,0.4375 -0.71094,0.804688 -0.72266,0.816406 -0.0156,0.023438 -0.0156,0.050782 -0.0156,0.195313 v 0.164062 h 3.1875 V 6.835938 c 0.0273,-0.050782 0.21485,-1.519532 0.24219,-1.570313 V 5.238281 h -0.34375 v 0.027344 c -0.0703,0.386719 -0.0781,0.464844 -0.12109,0.582031 -0.0273,0.085938 -0.0586,0.171875 -0.0859,0.183594 -0.0508,0.023438 -0.56641,0.042969 -1.43359,0.042969 L 126.87891,6.0625 127.38672,5.582031 c 0.58594,-0.558593 0.55859,-0.53125 0.85937,-0.789062 0.56641,-0.492188 0.79297,-0.722657 0.97266,-0.988281 0.20703,-0.300782 0.30078,-0.558594 0.30078,-0.9375 0,-0.101563 -0.008,-0.207032 -0.0195,-0.285157 -0.14453,-0.839843 -0.81641,-1.441406 -1.82031,-1.441406 -0.875,0 -1.58985,0.6875 -1.58985,1.503906 0,0.292969 0.1875,0.53125 0.51563,0.53125 z m 0,0"
     id="path40" />
  <path
     fill-rule="nonzero"
     fill="#7f7f7f"
     fill-opacity="1"
     d="m 82.324219,131.73047 c 0,0.12109 0,0.2539 -0.01172,0.375 l -0.01172,0.21875 -0.07422,0.23047 c -0.277343,0.90234 -0.582031,2.05468 -0.644531,2.48047 -0.01172,0.0742 -0.01172,0.13671 -0.01172,0.19531 0,0.20703 0.05078,0.33984 0.207032,0.33984 0.03516,0 0.07422,-0.0117 0.109375,-0.0352 0.183593,-0.0859 0.316406,-0.42579 0.546875,-1.375 0.160156,-0.61719 0.253906,-1.16797 0.316406,-1.71485 0.01172,-0.0977 0.02344,-0.16797 0.09766,-0.36328 0.425782,-1.22656 0.960938,-2.48047 1.628906,-3.79297 0.132813,-0.28125 0.21875,-0.44922 0.21875,-0.47265 0,-0.0391 -0.04687,-0.0859 -0.07422,-0.10938 h -0.15625 c -0.109375,0 -0.171875,0 -0.195313,0.0117 -0.02344,0.0234 -0.07422,0.12109 -0.265625,0.48437 -0.4375,0.875 -0.730468,1.51954 -1.070312,2.39454 l -0.148438,0.32812 c -0.01172,0 -0.01172,-0.0234 -0.01172,-0.0469 0,-0.19532 -0.08594,-0.66797 -0.167969,-1.03516 -0.367188,-1.43359 -0.828125,-2.06641 -1.605469,-2.24609 -0.07422,-0.0156 -0.257812,-0.0156 -0.402344,-0.0156 h -0.144531 c -0.9375,0.13672 -1.8125,0.9375 -2.164063,1.98438 -0.03906,0.12109 -0.0625,0.19531 -0.0625,0.24218 0,0.10938 0.109376,0.10938 0.242188,0.10938 0.08594,0 0.171875,0 0.195312,-0.0234 0.01172,0 0.03906,-0.0508 0.05078,-0.10937 0.253906,-0.69532 0.984375,-1.15625 1.761718,-1.15625 1.519532,0 1.847657,1.54296 1.847657,3.10156 z m 0,0"
     id="path41" />
  <path
     fill-rule="nonzero"
     fill="#7f7f7f"
     fill-opacity="1"
     d="m 87.707031,134.44531 h 0.09375 v -0.39453 h -0.503906 c -0.257813,0 -0.441406,-0.008 -0.558594,-0.12891 l -0.01172,-2.57812 v -2.57031 c -0.05078,-0.043 -0.03125,-0.0508 -0.144531,-0.0508 -0.07813,0 -0.08594,0 -0.101562,0.0273 -0.04297,0.043 -0.191407,0.15234 -0.269531,0.19531 -0.316407,0.19922 -0.71875,0.3086 -1.203126,0.32813 h -0.160156 v 0.39453 h 0.160156 c 0.328126,-0.008 0.636719,-0.0703 0.886719,-0.16406 0.03516,-0.0156 0.05859,-0.0234 0.07031,-0.0234 v 4.4414 c -0.0625,0.043 -0.105469,0.0937 -0.207032,0.10157 -0.09375,0.0195 -0.394531,0.0273 -0.644531,0.0273 h -0.222656 v 0.39453 h 0.101563 c 0.144531,-0.0273 1.074218,-0.0273 1.347656,-0.0273 0.277344,0 1.222656,0 1.367187,0.0273 z m 0,0"
     id="path42" />
  <path
     fill-rule="nonzero"
     fill="#7f7f7f"
     fill-opacity="1"
     d="m 146.53516,131.73047 c 0,0.12109 0,0.2539 -0.0117,0.375 l -0.0117,0.21875 -0.0742,0.23047 c -0.27734,0.90234 -0.58203,2.05468 -0.64453,2.48047 -0.0117,0.0742 -0.0117,0.13671 -0.0117,0.19531 0,0.20703 0.0508,0.33984 0.20703,0.33984 0.0352,0 0.0742,-0.0117 0.10938,-0.0352 0.18359,-0.0859 0.3164,-0.42579 0.54687,-1.375 0.16016,-0.61719 0.25391,-1.16797 0.31641,-1.71485 0.0117,-0.0977 0.0234,-0.16797 0.0977,-0.36328 0.42578,-1.22656 0.96094,-2.48047 1.62891,-3.79297 0.13281,-0.28125 0.21875,-0.44922 0.21875,-0.47265 0,-0.0391 -0.0469,-0.0859 -0.0742,-0.10938 h -0.15625 c -0.10937,0 -0.17187,0 -0.19531,0.0117 -0.0234,0.0234 -0.0742,0.12109 -0.26563,0.48437 -0.4375,0.875 -0.73047,1.51954 -1.07031,2.39454 l -0.14844,0.32812 c -0.0117,0 -0.0117,-0.0234 -0.0117,-0.0469 0,-0.19532 -0.0859,-0.66797 -0.16796,-1.03516 -0.36719,-1.43359 -0.82813,-2.06641 -1.60547,-2.24609 -0.0742,-0.0156 -0.25782,-0.0156 -0.40235,-0.0156 h -0.14453 c -0.9375,0.13672 -1.8125,0.9375 -2.16406,1.98438 -0.0391,0.12109 -0.0625,0.19531 -0.0625,0.24218 0,0.10938 0.10937,0.10938 0.24219,0.10938 0.0859,0 0.17187,0 0.19531,-0.0234 0.0117,0 0.0391,-0.0508 0.0508,-0.10937 0.25391,-0.69532 0.98438,-1.15625 1.76172,-1.15625 1.51953,0 1.84766,1.54296 1.84766,3.10156 z m 0,0"
     id="path43" />
  <path
     fill-rule="nonzero"
     fill="#7f7f7f"
     fill-opacity="1"
     d="m 149.06641,132.29687 c 0,0.0937 0.0508,0.13672 0.12109,0.17188 h 4.99219 c 0.0664,-0.0352 0.1289,-0.0781 0.1289,-0.17188 0,-0.0937 -0.0625,-0.13671 -0.1289,-0.17187 h -4.99219 c -0.0703,0.0352 -0.12109,0.0781 -0.12109,0.17187 z m 0,0"
     id="path44" />
  <path
     fill-rule="nonzero"
     fill="#7f7f7f"
     fill-opacity="1"
     d="m 158.67578,134.44531 h 0.0937 v -0.39453 h -0.50391 c -0.25781,0 -0.4414,-0.008 -0.55859,-0.12891 l -0.0117,-2.57812 v -2.57031 c -0.0508,-0.043 -0.0312,-0.0508 -0.14453,-0.0508 -0.0781,0 -0.0859,0 -0.10156,0.0273 -0.043,0.043 -0.19141,0.15234 -0.26953,0.19531 -0.31641,0.19922 -0.71875,0.3086 -1.20313,0.32813 h -0.16015 v 0.39453 h 0.16015 c 0.32813,-0.008 0.63672,-0.0703 0.88672,-0.16406 0.0352,-0.0156 0.0586,-0.0234 0.0703,-0.0234 v 4.4414 c -0.0625,0.043 -0.10547,0.0937 -0.20703,0.10157 -0.0937,0.0195 -0.39453,0.0273 -0.64453,0.0273 h -0.22266 v 0.39453 h 0.10157 c 0.14453,-0.0273 1.07422,-0.0273 1.34765,-0.0273 0.27735,0 1.22266,0 1.36719,0.0273 z m 0,0"
     id="path45" />
</svg>
