<?xml version="1.0" encoding="UTF-8"?>
<!-- Generator: Adobe Illustrator 16.0.3, SVG Export Plug-In . SVG Version: 6.00 Build 0)  -->
<!DOCTYPE svg PUBLIC "-//W3C//DTD SVG 1.1//EN" "http://www.w3.org/Graphics/SVG/1.1/DTD/svg11.dtd">
<svg version="1.1" xmlns="http://www.w3.org/2000/svg" xmlns:xlink="http://www.w3.org/1999/xlink" x="0px" y="0px" width="198.425px" height="90.708px" viewBox="0 0 198.425 90.708" enable-background="new 0 0 198.425 90.708" xml:space="preserve">
<g id="Schutzraum">
	<rect y="0" fill="none" width="198.425" height="90.709"/>
	<rect y="0" fill="none" width="198.425" height="90.709"/>
	<rect y="0" fill="none" width="198.425" height="90.709"/>
	<rect y="0" fill="none" width="198.425" height="90.709"/>
</g>
<g id="RWTH">
	<g>
		<path fill="#8EBAE5" d="M123.608,67.852h4.345v-9.113h2.323c1.75,0,2.505,1.026,2.565,2.716l0.12,4.135    c0.03,0.844,0.121,1.658,0.543,2.263h4.707v-0.181c-0.813-0.424-0.935-1.6-0.965-3.862c-0.06-4.557-0.513-6.188-3.47-6.579v-0.06    c2.443-0.514,3.591-2.444,3.591-5.312c0-3.682-2.173-5.553-5.734-5.553h-8.025V67.852z M127.953,49.505h2.052    c1.961,0,3.019,0.996,3.019,2.987c0,2.323-1.179,3.229-3.261,3.229h-1.81V49.505z"/>
		<path fill="#8EBAE5" d="M59.545,46.307v15.027c0,5.764,3.349,6.941,6.88,6.941c3.53,0,6.88-1.448,6.88-6.941V46.307H68.96v15.027    c0,2.143-0.513,3.742-2.535,3.742s-2.535-1.6-2.535-3.742V46.307H59.545z"/>
	</g>
	<polygon fill="#8EBAE5" points="74.369,46.307 74.369,67.851 78.352,67.851 78.352,52.764 78.412,52.764 83.723,67.851    88.671,67.851 88.671,46.307 84.688,46.307 84.688,61.062 84.628,61.062 79.377,46.307  "/>
	<rect x="89.789" y="46.307" fill="#8EBAE5" width="4.345" height="21.544"/>
	<polygon fill="#8EBAE5" points="94.432,46.307 99.38,67.851 104.963,67.851 109.911,46.307 105.415,46.307 102.217,62.24    102.127,62.24 99.079,46.307  "/>
	<polygon fill="#8EBAE5" points="110.299,46.307 110.299,67.851 122.641,67.851 122.641,64.292 114.644,64.292 114.644,58.498    121.887,58.498 121.887,54.936 114.644,54.936 114.644,49.868 122.339,49.868 122.339,46.307  "/>
	<g>
		<path fill="#8EBAE5" d="M137.729,61.123v0.875c0,3.984,1.931,6.277,6.85,6.277c4.707,0,7.483-2.052,7.483-6.609    c0-2.625-0.845-4.284-4.104-5.703l-3.349-1.447c-1.841-0.785-2.233-1.6-2.233-2.928c0-1.267,0.514-2.505,2.475-2.505    c1.659,0,2.354,1.177,2.354,3.199h4.164v-0.604c0-4.134-2.807-5.792-6.669-5.792c-4.104,0-6.668,2.142-6.668,6.335    c0,3.592,1.78,5.191,5.643,6.519c2.866,0.996,3.862,1.72,3.862,3.682c0,1.811-1.268,2.655-2.595,2.655    c-2.294,0-2.867-1.297-2.867-3.319v-0.634H137.729z"/>
	</g>
	<rect x="152.63" y="46.307" fill="#8EBAE5" width="4.345" height="21.544"/>
	<polygon fill="#8EBAE5" points="179.544,46.307 176.526,54.634 176.466,54.634 173.63,46.307 157.544,46.307 157.544,49.868    162.251,49.868 162.251,67.851 166.598,67.851 166.598,49.868 170.263,49.868 174.323,59.373 174.323,67.851 178.669,67.851    178.669,59.373 184.252,46.307  "/>
	<g>
		<path fill="#00549F" d="M21.374,44.347h-0.276h-6.924v-2.439V22.865v-0.159h6.91h0.014h4.883c3.202-0.001,5.963,2.072,6.864,4.82    c0.834,2.546,0.121,5.312-1.761,7.281c0.25,0.678,0.494,1.209,0.726,1.818c0.523,1.205,1.001,2.41,1.524,3.6l1.713,4.122h-0.044    h-7.257c0,0.004-0.058-0.174-0.116-0.247c-0.29-0.638-0.552-1.321-0.842-1.959l-1.756-4.166c-0.697-1.684-1.394-3.275-2.09-4.958    c0.869-0.024,1.519,0.139,2.358-0.247c0.59-0.29,1.484-1.011,1.507-2.394c-0.023-0.685-0.213-1.204-0.666-1.744    c-0.455-0.502-1.113-0.874-1.97-0.886c0,0-2.798-0.001-2.797,0V44.347z"/>
		<path fill="#00549F" d="M96.579,22.706v21.641h-5.622h-1.578v-8.824h-0.672h-4.31h-0.059v8.824c-1.306,0-2.714-0.014-4.02,0h-3.18    V27.713h-5.036v0.522v1.567v7.127v7.417h-0.058h-7.142v-8.97v-0.348v-7.315h-5.079v7.852v8.781h-7.417    c-1.292-3.12-2.656-6.27-3.919-9.376c-0.145-0.653-0.29-1.307-0.479-1.945v11.321h-7.432c-1.473-3.425-2.888-6.782-4.357-10.258    c-0.509-1.204-0.926-2.184-1.452-3.436l-0.072-0.164l-1.144-2.685l-1.638-3.835c-0.144-0.435-0.376-0.828-0.522-1.263h7.415    c1.524,3.701,3.062,7.359,4.659,11.002l0.044,0.087c-0.058-0.421-0.19-0.958-0.262-1.364v-6.459c0.014-1.031,0-2.207,0-3.266    h7.431c0.094,0.236,0.146,0.363,0.218,0.552c0.871,2.046,1.699,4.078,2.57,6.11l1.945,4.427c-0.044-0.465-0.146-0.914-0.204-1.364    v-9.725h0.595h5.052h18.288h5.196v1.35v6.459h0.349h4.692v-7.809h3.755H96.579z"/>
	</g>
	<path fill="#8EBAE5" d="M117.464,36.192l2.092-9.73h0.061l2.092,9.73H117.464z M103.037,36.192l2.091-9.73h0.06l2.093,9.73H103.037   z M122.284,22.704h-5.396l-4.516,17.059l-4.517-17.059h-5.396l-5.729,21.643h4.546l1-4.577h5.762l0.999,4.577h6.668l1-4.577h5.76   l1,4.577h4.547L122.284,22.704z"/>
	<g>
		<path fill="#8EBAE5" d="M141.013,30.088c0-3.138-0.452-7.695-6.669-7.695c-6.518,0-7.333,4.647-7.333,11.195    c0,6.548,0.815,11.195,7.333,11.195c5.702,0,6.85-4.013,6.85-8.66h-4.345c0,4.647-1.147,5.462-2.717,5.462    c-1.87,0-2.775-1.177-2.775-7.695c0-6.095,0.513-8.298,2.716-8.298c1.961,0,2.595,1.358,2.595,4.496H141.013z"/>
	</g>
	<polygon fill="#8EBAE5" points="142.052,44.347 146.416,44.347 146.416,34.739 151.508,34.739 151.508,44.347 155.873,44.347    155.873,22.706 151.508,22.706 151.508,30.981 146.416,30.981 146.416,22.706 142.052,22.706  "/>
	<polygon fill="#8EBAE5" points="156.818,22.702 156.818,44.347 169.219,44.347 169.219,40.77 161.185,40.77 161.185,34.949    168.461,34.949 168.461,31.372 161.185,31.372 161.185,26.279 168.915,26.279 168.915,22.702  "/>
	<polygon fill="#8EBAE5" points="169.866,22.706 169.866,44.347 173.867,44.347 173.867,29.192 173.928,29.192 179.263,44.347    184.233,44.347 184.233,22.706 180.232,22.706 180.232,37.527 180.172,37.527 174.897,22.706  "/>
</g>
</svg>